<svg width="24" height="24" viewBox="0 0 24 24" fill="none" xmlns="http://www.w3.org/2000/svg">
<g clip-path="url(#clip0)">
<path d="M20.7469 0.994141H3.25328C1.77685 0.994141 0.575684 2.19531 0.575684 3.67174V21.1654C0.575684 22.6418 1.77685 23.843 3.25328 23.843H20.7469C22.2234 23.843 23.4245 22.6418 23.4245 21.1654V3.67174C23.4245 2.19531 22.2234 0.994141 20.7469 0.994141ZM21.6395 21.1654C21.6395 21.6575 21.2391 22.0579 20.7469 22.0579H15.6595V14.7838H18.417L18.8726 12.0169H15.6595V10.098C15.6595 9.34044 16.2407 8.75917 16.9983 8.75917H18.828V5.99232H16.9983C14.7258 5.99232 12.8936 7.83317 12.8936 10.1057V12.0169H10.215V14.7838H12.8936V22.0579H3.25328C2.76114 22.0579 2.36075 21.6575 2.36075 21.1654V3.67174C2.36075 3.1796 2.76114 2.77921 3.25328 2.77921H20.7469C21.2391 2.77921 21.6395 3.1796 21.6395 3.67174V21.1654Z" fill="#434AFF"/>
</g>
<defs>
<clipPath id="clip0">
<rect width="22.8488" height="22.8488" fill="white" transform="translate(0.575684 0.994141)"/>
</clipPath>
</defs>
</svg>
