<svg width="26" height="26" viewBox="0 0 26 26" fill="none" xmlns="http://www.w3.org/2000/svg">
<g clip-path="url(#clip0)">
<path d="M9.912 26C8.01938 26 6.23442 25.3962 4.75008 24.2536C4.47282 24.0403 4.20621 23.8073 3.95739 23.5615C2.22473 21.8491 1.35282 19.5686 1.50262 17.1397C1.61586 15.3039 2.35524 13.5342 3.58567 12.1565C5.21524 10.332 7.4618 9.32699 9.9125 9.32699C10.3335 9.32699 10.7585 9.35848 11.177 9.42043L11.827 9.51691V15.2852L10.8261 14.9546C10.5346 14.8581 10.2314 14.8093 9.92469 14.8093C9.14977 14.8093 8.42411 15.113 7.88125 15.664C7.34094 16.2124 7.04997 16.9376 7.06114 17.7069C7.07586 18.6987 7.5984 19.5975 8.45864 20.1124C8.85473 20.3491 9.30567 20.4877 9.76371 20.5131C10.1253 20.5329 10.4823 20.4857 10.8256 20.3724C11.9991 19.985 12.7877 18.8962 12.7877 17.6637L12.7928 11.6817V0H18.3056L18.3122 0.754609C18.3153 1.09637 18.3503 1.43813 18.4163 1.76922C18.6753 3.07125 19.4056 4.2316 20.4725 5.03598C21.4195 5.75047 22.5499 6.12777 23.7402 6.12777C23.7682 6.12777 23.7682 6.12777 24.0226 6.14555L24.731 6.19531V10.8672V11.6289L24.4771 11.6284H23.9708C23.9667 11.6284 23.9627 11.6284 23.9581 11.6284H23.7148C23.7138 11.6284 23.7123 11.6284 23.7108 11.6284C22.2427 11.6284 20.867 11.3486 19.5036 10.7732C19.0973 10.6016 18.7017 10.4056 18.3198 10.1867L18.3371 17.6927C18.328 19.9129 17.4505 21.9954 15.8666 23.561C14.5813 24.831 12.9594 25.6425 11.1759 25.9066C10.76 25.9685 10.335 26 9.912 26ZM9.912 10.8504C7.90157 10.8504 6.05821 11.6746 4.72164 13.1711C3.71821 14.2949 3.11493 15.7376 3.0225 17.2331C2.90063 19.2161 3.61258 21.0788 5.02786 22.4773C5.2325 22.6794 5.45137 22.8709 5.67887 23.0461C6.89457 23.982 8.3586 24.4766 9.912 24.4766C10.2604 24.4766 10.6102 24.4507 10.953 24.3999C12.414 24.1836 13.7429 23.5188 14.7961 22.4778C16.09 21.1991 16.8066 19.4995 16.8142 17.6917L16.7903 7.21094L18.0207 8.16004C18.656 8.65008 19.3548 9.05734 20.0967 9.37066C21.1108 9.79875 22.133 10.0364 23.207 10.0928V7.63242C21.8796 7.53289 20.6258 7.06113 19.5548 6.2532C18.1888 5.22336 17.254 3.73648 16.9218 2.0673C16.8863 1.88805 16.8573 1.70676 16.836 1.52395H14.3157V11.6822L14.3107 17.6643C14.3107 19.5548 13.1021 21.2245 11.3029 21.8187C10.7783 21.9918 10.2324 22.0639 9.67993 22.034C8.9761 21.9954 8.28344 21.7826 7.6761 21.4195C6.35934 20.6319 5.55954 19.2522 5.53719 17.7293C5.51993 16.5491 5.96629 15.436 6.79504 14.5945C7.62633 13.7505 8.73743 13.2859 9.92368 13.2859C10.0506 13.2859 10.1766 13.2915 10.3025 13.3021V10.8611C10.1725 10.854 10.042 10.8504 9.912 10.8504Z" fill="#434AFF"/>
</g>
<defs>
<clipPath id="clip0">
<rect width="26" height="26" fill="white"/>
</clipPath>
</defs>
</svg>
