<svg width="30" height="30" viewBox="0 0 30 30" fill="none" xmlns="http://www.w3.org/2000/svg">
<g clip-path="url(#clip0)">
<path d="M14.9989 25.898C14.9964 25.898 14.9937 25.898 14.9909 25.898C14.0857 25.8919 6.08306 25.8188 3.81575 25.2057C2.2312 24.7797 0.98036 23.5302 0.553265 21.9455C-0.0399973 19.7182 -0.00223176 15.4301 0.00188812 15.0877C-0.00200287 14.7469 -0.0402262 10.4233 0.551434 8.17773C0.552121 8.17567 0.552579 8.17338 0.553265 8.17132C0.975553 6.60462 2.25455 5.31647 3.81186 4.88938C3.81575 4.88823 3.81987 4.88732 3.82376 4.88617C6.06544 4.29703 14.0839 4.22493 14.9909 4.21875H15.0072C15.9147 4.22493 23.9386 4.29794 26.1851 4.91203C27.7655 5.33684 29.0155 6.58471 29.4437 8.16743C30.0592 10.4146 30.0022 14.7476 29.996 15.1133C30.0003 15.4736 30.0363 19.7232 29.4464 21.9617C29.446 21.964 29.4453 21.9661 29.4448 21.9681C29.0175 23.5529 27.7669 24.8024 26.1805 25.2288C26.1785 25.2295 26.1762 25.2299 26.1741 25.2306C23.9327 25.8195 15.914 25.8916 15.0072 25.898C15.0044 25.898 15.0017 25.898 14.9989 25.898ZM2.81691 8.77877C2.29597 10.7609 2.34518 15.0293 2.34564 15.0724V15.1033C2.33008 16.287 2.38478 19.7152 2.81714 21.3389C3.0268 22.1164 3.64363 22.7324 4.42595 22.9427C6.09885 23.3952 12.6167 23.5376 14.9989 23.5543C17.3873 23.5376 23.9148 23.3991 25.5754 22.9647C26.3552 22.7536 26.9699 22.1398 27.181 21.3614C27.6138 19.7139 27.668 16.3024 27.6522 15.1261C27.6522 15.1138 27.6522 15.1014 27.6525 15.0891C27.674 13.8911 27.6316 10.4228 27.183 8.7861C27.1826 8.7845 27.1821 8.78289 27.1819 8.78129C26.9713 8.00034 26.3542 7.38442 25.5719 7.17408C23.9153 6.72112 17.3869 6.57921 14.9989 6.56251C12.6122 6.57921 6.09107 6.71746 4.4255 7.15142C3.65805 7.36428 3.02725 8.00218 2.81691 8.77877ZM28.3132 21.6633H28.3139H28.3132ZM12.0118 19.8043V10.3123L20.2149 15.0584L12.0118 19.8043Z" fill="#434AFF"/>
</g>
<defs>
<clipPath id="clip0">
<rect width="30" height="30" fill="white"/>
</clipPath>
</defs>
</svg>
